<svg width="197" height="201" viewBox="0 0 197 201" fill="none" xmlns="http://www.w3.org/2000/svg">
<ellipse cx="98.7647" cy="96.755" rx="95.7647" ry="96.755" fill="#CF6F19"/>
<g filter="url(#filter0_d_122_11)">
<path d="M153.1 115.379C151.815 115.379 150.675 116.194 150.189 117.396C141.872 137.946 121.888 152.424 98.5581 152.424C75.2282 152.424 55.2447 137.946 46.9273 117.396C46.441 116.194 45.301 115.379 44.0164 115.379C41.9395 115.379 40.4699 117.429 41.2455 119.376C50.3809 142.303 72.5992 158.487 98.5581 158.487C124.517 158.487 146.735 142.303 155.871 119.376C156.646 117.429 155.177 115.379 153.1 115.379Z" fill="white"/>
<path d="M43.9367 76.9798C45.2252 76.9798 46.3678 76.1598 46.8512 74.9528C55.1224 54.3025 75.1567 39.7352 98.5581 39.7352C121.96 39.7352 141.994 54.3025 150.265 74.9528C150.749 76.1597 151.891 76.9798 153.18 76.9798C155.252 76.9798 156.721 74.9384 155.954 72.9933C146.871 49.9548 124.596 33.6722 98.5581 33.6722C72.5202 33.6722 50.2457 49.9548 41.1625 72.9933C40.3956 74.9384 41.8647 76.9798 43.9367 76.9798Z" fill="white"/>
<path d="M187.721 113.176C186.271 113.176 185.031 114.222 184.72 115.654C175.938 156.142 140.239 186.447 97.535 186.447C54.8312 186.447 19.1319 156.142 10.3497 115.654C10.0392 114.222 8.79873 113.176 7.34852 113.176C5.47031 113.176 4.04558 114.894 4.44359 116.748C13.7383 160.063 51.8868 192.51 97.535 192.51C143.183 192.51 181.332 160.063 190.626 116.748C191.024 114.894 189.6 113.176 187.721 113.176Z" fill="white"/>
<path d="M8.45175 74.777C9.84571 74.777 11.0544 73.8103 11.4215 72.4514C21.7552 34.1896 56.3945 6.063 97.535 6.063C138.675 6.063 173.315 34.1896 183.648 72.4513C184.015 73.8102 185.224 74.777 186.618 74.777C188.56 74.777 190 72.9525 189.493 71.0585C178.534 30.119 141.515 0 97.535 0C53.5546 0 16.5359 30.1191 5.57688 71.0585C5.06987 72.9526 6.51006 74.777 8.45175 74.777Z" fill="white"/>
<path d="M15.3175 105.107C13.2078 105.107 11.2947 104.602 9.57831 103.59C7.86191 102.578 6.50309 101.205 5.50185 99.4705C4.50062 97.7361 4 95.7668 4 93.5626C4 91.3585 4.48274 89.4072 5.44822 87.7089C6.44945 85.9745 7.82615 84.6014 9.57831 83.5897C11.3305 82.5779 13.3151 82.072 15.5321 82.072C17.1055 82.072 18.5179 82.2708 19.7695 82.6683C21.0568 83.0657 22.2368 83.6981 23.3095 84.5653C23.8817 85.035 24.1677 85.6493 24.1677 86.4081C24.1677 87.0224 23.9532 87.5463 23.5241 87.9799C23.095 88.4135 22.5765 88.6303 21.9686 88.6303C21.5753 88.6303 21.1283 88.4677 20.6277 88.1425C19.841 87.6367 19.0364 87.2392 18.214 86.9501C17.3915 86.6249 16.5154 86.4623 15.5857 86.4623C13.619 86.4623 11.992 87.1308 10.7047 88.4677C9.45316 89.7686 8.82739 91.4669 8.82739 93.5626C8.82739 95.7306 9.43528 97.4651 10.6511 98.7659C11.8669 100.067 13.4223 100.717 15.3175 100.717C17.0697 100.717 18.5 100.374 19.6085 99.6873C20.7528 98.9646 21.325 98.0432 21.325 96.9231C21.325 96.634 21.1998 96.4895 20.9495 96.4895H17.3558C16.6764 96.4895 16.1221 96.2907 15.693 95.8932C15.2997 95.4958 15.103 94.9718 15.103 94.3214C15.103 93.7071 15.2997 93.2013 15.693 92.8038C16.1221 92.4063 16.6764 92.2076 17.3558 92.2076H23.2559C24.2214 92.2076 24.9187 92.4425 25.3478 92.9122C25.7769 93.3458 25.9914 94.0866 25.9914 95.1344C25.9914 98.1697 25.0081 100.591 23.0414 102.397C21.1104 104.204 18.5358 105.107 15.3175 105.107Z" fill="white"/>
<path d="M38.4869 105.107C36.9493 105.107 35.5368 104.746 34.2495 104.023C32.9622 103.301 31.9252 102.307 31.1385 101.042C30.3876 99.7415 30.0122 98.2781 30.0122 96.6521C30.0122 94.9899 30.3876 93.5446 31.1385 92.316C31.9252 91.0513 32.9622 90.0757 34.2495 89.3892C35.5368 88.6665 36.9493 88.3051 38.4869 88.3051C40.0603 88.3051 41.4727 88.6665 42.7243 89.3892C44.0116 90.0757 45.0307 91.0513 45.7816 92.316C46.5325 93.5446 46.908 94.9899 46.908 96.6521C46.908 98.2781 46.5325 99.7415 45.7816 101.042C45.0307 102.307 44.0116 103.301 42.7243 104.023C41.4727 104.746 40.0603 105.107 38.4869 105.107ZM38.4869 100.717C39.5954 100.717 40.4894 100.338 41.1688 99.5789C41.8839 98.784 42.2415 97.8083 42.2415 96.6521C42.2415 95.4596 41.8839 94.5021 41.1688 93.7794C40.4894 93.0567 39.5954 92.6954 38.4869 92.6954C37.4141 92.6954 36.5023 93.0567 35.7514 93.7794C35.0362 94.5021 34.6786 95.4596 34.6786 96.6521C34.6786 97.8083 35.0362 98.784 35.7514 99.5789C36.5023 100.338 37.4141 100.717 38.4869 100.717Z" fill="white"/>
<path d="M59.2572 105.107C56.8614 105.107 54.9126 104.349 53.4107 102.831C51.9446 101.277 51.2116 99.2176 51.2116 96.6521C51.2116 94.0866 51.9267 92.0631 53.3571 90.5816C54.8232 89.0639 56.7363 88.3051 59.0963 88.3051C60.777 88.3051 62.2431 88.9014 63.4946 90.0938C63.6376 89.6602 63.9058 89.2988 64.2992 89.0098C64.6925 88.7207 65.1574 88.5761 65.6937 88.5761C66.4089 88.5761 66.981 88.7929 67.4101 89.2265C67.875 89.624 68.1074 90.1118 68.1074 90.69V102.994C68.1074 103.608 67.875 104.114 67.4101 104.511C66.981 104.909 66.4089 105.107 65.6937 105.107C64.5137 105.107 63.7807 104.583 63.4946 103.536C62.3503 104.583 60.9379 105.107 59.2572 105.107ZM59.6327 100.717C60.777 100.717 61.6888 100.338 62.3682 99.5789C63.0476 98.784 63.3873 97.8083 63.3873 96.6521C63.3873 95.4596 63.0476 94.5021 62.3682 93.7794C61.6888 93.0567 60.777 92.6954 59.6327 92.6954C58.5242 92.6954 57.6123 93.0567 56.8972 93.7794C56.2178 94.5021 55.8781 95.4596 55.8781 96.6521C55.8781 97.8083 56.2178 98.784 56.8972 99.5789C57.6123 100.338 58.5242 100.717 59.6327 100.717Z" fill="white"/>
<path d="M76.213 105.107C75.5336 105.107 74.9615 104.909 74.4966 104.511C74.0317 104.114 73.7993 103.608 73.7993 102.994V82.8309C73.7993 82.2527 74.0139 81.7649 74.443 81.3674C74.9078 80.9338 75.4978 80.717 76.213 80.717C76.8924 80.717 77.4467 80.9338 77.8758 81.3674C78.3049 81.7649 78.5194 82.2708 78.5194 82.8851V102.939C78.5194 103.554 78.287 104.078 77.8221 104.511C77.393 104.909 76.8566 105.107 76.213 105.107Z" fill="white"/>
<path d="M115.428 106.733C114.856 106.733 114.356 106.517 113.927 106.083L111.996 104.023C110.529 104.746 108.938 105.107 107.222 105.107C105.112 105.107 103.199 104.602 101.483 103.59C99.802 102.542 98.461 101.133 97.4598 99.3621C96.4943 97.5915 96.0116 95.6403 96.0116 93.5084C96.0116 91.3042 96.4943 89.353 97.4598 87.6547C98.461 85.9203 99.802 84.5653 101.483 83.5897C103.163 82.5779 105.076 82.072 107.222 82.072C109.367 82.072 111.263 82.5779 112.907 83.5897C114.588 84.5653 115.893 85.9203 116.823 87.6547C117.788 89.353 118.271 91.3042 118.271 93.5084C118.271 94.9899 118.039 96.3811 117.574 97.6819C117.109 98.9466 116.465 100.085 115.643 101.097L117.091 102.452C117.663 103.03 117.949 103.626 117.949 104.24C117.949 104.927 117.753 105.469 117.359 105.866C116.787 106.444 116.144 106.733 115.428 106.733ZM107.222 100.771C107.722 100.771 108.205 100.717 108.67 100.609L107.758 99.7415C107.186 99.2356 106.9 98.6033 106.9 97.8445C106.9 97.1941 107.097 96.6701 107.49 96.2727C107.991 95.7668 108.599 95.5138 109.314 95.5138C109.957 95.5138 110.494 95.7306 110.923 96.1642L112.371 97.7903C113.086 96.5617 113.444 95.1344 113.444 93.5084C113.444 91.4126 112.854 89.6963 111.674 88.3593C110.529 87.0224 109.046 86.3539 107.222 86.3539C105.362 86.3539 103.825 87.0224 102.609 88.3593C101.429 89.6963 100.839 91.4126 100.839 93.5084C100.839 95.6042 101.429 97.3386 102.609 98.7117C103.825 100.085 105.362 100.771 107.222 100.771Z" fill="white"/>
<path d="M133.925 90.6358C133.925 89.9492 134.14 89.3892 134.569 88.9555C135.033 88.5219 135.606 88.3051 136.285 88.3051C136.964 88.3051 137.519 88.54 137.948 89.0098C138.413 89.4434 138.645 89.9854 138.645 90.6358V98.2781C138.645 99.7596 138.27 101.024 137.519 102.072C136.768 103.084 135.802 103.843 134.622 104.349C133.442 104.854 132.191 105.107 130.868 105.107C129.58 105.107 128.347 104.854 127.167 104.349C125.987 103.843 125.003 103.084 124.217 102.072C123.466 101.024 123.09 99.7596 123.09 98.2781V90.6358C123.09 89.9492 123.305 89.3892 123.734 88.9555C124.199 88.5219 124.771 88.3051 125.45 88.3051C126.13 88.3051 126.684 88.54 127.113 89.0098C127.578 89.4434 127.81 89.9854 127.81 90.6358V98.0613C127.81 98.8201 128.096 99.4524 128.669 99.9583C129.241 100.464 129.974 100.717 130.868 100.717C131.762 100.717 132.495 100.464 133.067 99.9583C133.639 99.4524 133.925 98.8201 133.925 98.0613V90.6358Z" fill="white"/>
<path d="M151.859 105.107C149.427 105.107 147.371 104.385 145.69 102.939C144.046 101.458 143.223 99.4344 143.223 96.8689C143.223 94.195 144.028 92.0992 145.637 90.5816C147.282 89.0639 149.338 88.3051 151.805 88.3051C153.557 88.3051 155.006 88.6303 156.15 89.2808C157.294 89.9312 158.152 90.7622 158.724 91.774C159.297 92.7857 159.583 93.8517 159.583 94.9718C159.583 96.8508 158.76 97.7903 157.115 97.7903H148.211C147.925 97.7903 147.782 97.9709 147.782 98.3323C147.782 99.1634 148.229 99.8318 149.123 100.338C150.053 100.807 151.09 101.042 152.234 101.042C152.949 101.042 153.665 100.952 154.38 100.771C155.095 100.555 155.721 100.247 156.257 99.8499C156.615 99.597 156.99 99.4705 157.383 99.4705C157.92 99.4705 158.367 99.6692 158.724 100.067C159.118 100.464 159.314 100.934 159.314 101.476C159.314 102.126 158.975 102.741 158.295 103.319C157.652 103.861 156.704 104.294 155.453 104.62C154.237 104.945 153.039 105.107 151.859 105.107ZM154.648 94.6466C154.719 94.6466 154.809 94.6286 154.916 94.5924C155.059 94.5563 155.131 94.4298 155.131 94.213C155.131 93.671 154.791 93.1832 154.112 92.7496C153.468 92.2799 152.628 92.045 151.591 92.045C150.482 92.045 149.57 92.2979 148.855 92.8038C148.176 93.2735 147.836 93.7614 147.836 94.2672C147.836 94.5202 147.979 94.6466 148.265 94.6466C148.551 94.6466 154.648 94.6466 154.648 94.6466Z" fill="white"/>
<path d="M169.974 105.107C167.542 105.107 165.54 104.602 163.966 103.59C163.644 103.373 163.412 103.12 163.269 102.831C163.126 102.506 163.054 102.199 163.054 101.91C163.054 101.295 163.251 100.735 163.644 100.229C164.074 99.7234 164.592 99.4705 165.2 99.4705C165.486 99.4705 165.772 99.5428 166.058 99.6873C166.702 99.9764 167.435 100.229 168.257 100.446C169.08 100.627 169.831 100.717 170.51 100.717C171.833 100.717 172.495 100.41 172.495 99.7957C172.495 99.4344 172.334 99.1272 172.012 98.8743C171.69 98.5852 170.939 98.3865 169.759 98.2781C169.294 98.242 168.686 98.1697 167.935 98.0613C167.22 97.9529 166.505 97.7541 165.79 97.4651C165.075 97.1399 164.467 96.6701 163.966 96.0559C163.501 95.4416 163.269 94.6105 163.269 93.5626C163.269 91.9366 163.877 90.6538 165.093 89.7144C166.308 88.7749 167.935 88.3051 169.974 88.3051C171.154 88.3051 172.262 88.4316 173.299 88.6845C174.372 88.9375 175.176 89.3169 175.713 89.8228C176.213 90.2925 176.464 90.8345 176.464 91.4488C176.464 91.9908 176.267 92.4786 175.874 92.9122C175.48 93.3458 174.98 93.5626 174.372 93.5626C174.05 93.5626 173.746 93.4903 173.46 93.3458C173.031 93.0567 172.477 92.8399 171.797 92.6954C171.154 92.5509 170.492 92.4786 169.813 92.4786C168.454 92.4786 167.775 92.7677 167.775 93.3458C167.775 93.5987 167.9 93.8336 168.15 94.0504C168.436 94.2311 169.062 94.3937 170.027 94.5382C170.635 94.6105 171.332 94.7189 172.119 94.8634C172.906 94.9718 173.657 95.1886 174.372 95.5138C175.123 95.8029 175.749 96.2907 176.249 96.9773C176.75 97.6638 177 98.6033 177 99.7957C177 101.422 176.357 102.723 175.069 103.698C173.782 104.638 172.083 105.107 169.974 105.107Z" fill="white"/>
<path d="M188.266 105.107C186.729 105.107 185.459 104.656 184.458 103.752C183.457 102.849 182.956 101.458 182.956 99.5789V93.7252C182.956 93.3639 182.777 93.1832 182.42 93.1832H181.615C180.971 93.1832 180.489 92.9845 180.167 92.587C179.845 92.1895 179.684 91.6837 179.684 91.0694C179.684 90.419 179.845 89.895 180.167 89.4976C180.489 89.0639 180.971 88.8471 181.615 88.8471H182.42C182.777 88.8471 182.956 88.6665 182.956 88.3051V84.2943C182.956 83.68 183.171 83.1561 183.6 82.7225C184.029 82.2888 184.583 82.072 185.262 82.072C185.942 82.072 186.496 82.2888 186.925 82.7225C187.39 83.1199 187.623 83.6439 187.623 84.2943V88.3051C187.623 88.6665 187.801 88.8471 188.159 88.8471H190.143C190.751 88.8471 191.252 89.0639 191.645 89.4976C192.074 89.9312 192.289 90.4551 192.289 91.0694C192.289 91.6837 192.074 92.1895 191.645 92.587C191.252 92.9845 190.734 93.1832 190.09 93.1832H188.159C187.801 93.1832 187.623 93.3639 187.623 93.7252V98.8201C187.623 99.4705 187.73 99.9222 187.944 100.175C188.195 100.428 188.499 100.555 188.856 100.555C188.999 100.555 189.285 100.518 189.714 100.446C190.144 100.338 190.412 100.284 190.519 100.284C191.091 100.284 191.574 100.5 191.967 100.934C192.361 101.368 192.557 101.891 192.557 102.506C192.557 102.975 192.414 103.409 192.128 103.807C191.878 104.204 191.467 104.493 190.894 104.674C190.43 104.818 189.983 104.927 189.553 104.999C189.124 105.071 188.695 105.107 188.266 105.107Z" fill="white"/>
<path d="M153.1 115.379C151.815 115.379 150.675 116.194 150.189 117.396C141.872 137.946 121.888 152.424 98.5581 152.424C75.2282 152.424 55.2447 137.946 46.9273 117.396C46.441 116.194 45.301 115.379 44.0164 115.379C41.9395 115.379 40.4699 117.429 41.2455 119.376C50.3809 142.303 72.5992 158.487 98.5581 158.487C124.517 158.487 146.735 142.303 155.871 119.376C156.646 117.429 155.177 115.379 153.1 115.379Z" stroke="white"/>
<path d="M43.9367 76.9798C45.2252 76.9798 46.3678 76.1598 46.8512 74.9528C55.1224 54.3025 75.1567 39.7352 98.5581 39.7352C121.96 39.7352 141.994 54.3025 150.265 74.9528C150.749 76.1597 151.891 76.9798 153.18 76.9798C155.252 76.9798 156.721 74.9384 155.954 72.9933C146.871 49.9548 124.596 33.6722 98.5581 33.6722C72.5202 33.6722 50.2457 49.9548 41.1625 72.9933C40.3956 74.9384 41.8647 76.9798 43.9367 76.9798Z" stroke="white"/>
<path d="M187.721 113.176C186.271 113.176 185.031 114.222 184.72 115.654C175.938 156.142 140.239 186.447 97.535 186.447C54.8312 186.447 19.1319 156.142 10.3497 115.654C10.0392 114.222 8.79873 113.176 7.34852 113.176C5.47031 113.176 4.04558 114.894 4.44359 116.748C13.7383 160.063 51.8868 192.51 97.535 192.51C143.183 192.51 181.332 160.063 190.626 116.748C191.024 114.894 189.6 113.176 187.721 113.176Z" stroke="white"/>
<path d="M8.45175 74.777C9.84571 74.777 11.0544 73.8103 11.4215 72.4514C21.7552 34.1896 56.3945 6.063 97.535 6.063C138.675 6.063 173.315 34.1896 183.648 72.4513C184.015 73.8102 185.224 74.777 186.618 74.777C188.56 74.777 190 72.9525 189.493 71.0585C178.534 30.119 141.515 0 97.535 0C53.5546 0 16.5359 30.1191 5.57688 71.0585C5.06987 72.9526 6.51006 74.777 8.45175 74.777Z" stroke="white"/>
<path d="M15.3175 105.107C13.2078 105.107 11.2947 104.602 9.57831 103.59C7.86191 102.578 6.50309 101.205 5.50185 99.4705C4.50062 97.7361 4 95.7668 4 93.5626C4 91.3585 4.48274 89.4072 5.44822 87.7089C6.44945 85.9745 7.82615 84.6014 9.57831 83.5897C11.3305 82.5779 13.3151 82.072 15.5321 82.072C17.1055 82.072 18.5179 82.2708 19.7695 82.6683C21.0568 83.0657 22.2368 83.6981 23.3095 84.5653C23.8817 85.035 24.1677 85.6493 24.1677 86.4081C24.1677 87.0224 23.9532 87.5463 23.5241 87.9799C23.095 88.4135 22.5765 88.6303 21.9686 88.6303C21.5753 88.6303 21.1283 88.4677 20.6277 88.1425C19.841 87.6367 19.0364 87.2392 18.214 86.9501C17.3915 86.6249 16.5154 86.4623 15.5857 86.4623C13.619 86.4623 11.992 87.1308 10.7047 88.4677C9.45316 89.7686 8.82739 91.4669 8.82739 93.5626C8.82739 95.7306 9.43528 97.4651 10.6511 98.7659C11.8669 100.067 13.4223 100.717 15.3175 100.717C17.0697 100.717 18.5 100.374 19.6085 99.6873C20.7528 98.9646 21.325 98.0432 21.325 96.9231C21.325 96.634 21.1998 96.4895 20.9495 96.4895H17.3558C16.6764 96.4895 16.1221 96.2907 15.693 95.8932C15.2997 95.4958 15.103 94.9718 15.103 94.3214C15.103 93.7071 15.2997 93.2013 15.693 92.8038C16.1221 92.4063 16.6764 92.2076 17.3558 92.2076H23.2559C24.2214 92.2076 24.9187 92.4425 25.3478 92.9122C25.7769 93.3458 25.9914 94.0866 25.9914 95.1344C25.9914 98.1697 25.0081 100.591 23.0414 102.397C21.1104 104.204 18.5358 105.107 15.3175 105.107Z" stroke="white"/>
<path d="M38.4869 105.107C36.9493 105.107 35.5368 104.746 34.2495 104.023C32.9622 103.301 31.9252 102.307 31.1385 101.042C30.3876 99.7415 30.0122 98.2781 30.0122 96.6521C30.0122 94.9899 30.3876 93.5446 31.1385 92.316C31.9252 91.0513 32.9622 90.0757 34.2495 89.3892C35.5368 88.6665 36.9493 88.3051 38.4869 88.3051C40.0603 88.3051 41.4727 88.6665 42.7243 89.3892C44.0116 90.0757 45.0307 91.0513 45.7816 92.316C46.5325 93.5446 46.908 94.9899 46.908 96.6521C46.908 98.2781 46.5325 99.7415 45.7816 101.042C45.0307 102.307 44.0116 103.301 42.7243 104.023C41.4727 104.746 40.0603 105.107 38.4869 105.107ZM38.4869 100.717C39.5954 100.717 40.4894 100.338 41.1688 99.5789C41.8839 98.784 42.2415 97.8083 42.2415 96.6521C42.2415 95.4596 41.8839 94.5021 41.1688 93.7794C40.4894 93.0567 39.5954 92.6954 38.4869 92.6954C37.4141 92.6954 36.5023 93.0567 35.7514 93.7794C35.0362 94.5021 34.6786 95.4596 34.6786 96.6521C34.6786 97.8083 35.0362 98.784 35.7514 99.5789C36.5023 100.338 37.4141 100.717 38.4869 100.717Z" stroke="white"/>
<path d="M59.2572 105.107C56.8614 105.107 54.9126 104.349 53.4107 102.831C51.9446 101.277 51.2116 99.2176 51.2116 96.6521C51.2116 94.0866 51.9267 92.0631 53.3571 90.5816C54.8232 89.0639 56.7363 88.3051 59.0963 88.3051C60.777 88.3051 62.2431 88.9014 63.4946 90.0938C63.6376 89.6602 63.9058 89.2988 64.2992 89.0098C64.6925 88.7207 65.1574 88.5761 65.6937 88.5761C66.4089 88.5761 66.981 88.7929 67.4101 89.2265C67.875 89.624 68.1074 90.1118 68.1074 90.69V102.994C68.1074 103.608 67.875 104.114 67.4101 104.511C66.981 104.909 66.4089 105.107 65.6937 105.107C64.5137 105.107 63.7807 104.583 63.4946 103.536C62.3503 104.583 60.9379 105.107 59.2572 105.107ZM59.6327 100.717C60.777 100.717 61.6888 100.338 62.3682 99.5789C63.0476 98.784 63.3873 97.8083 63.3873 96.6521C63.3873 95.4596 63.0476 94.5021 62.3682 93.7794C61.6888 93.0567 60.777 92.6954 59.6327 92.6954C58.5242 92.6954 57.6123 93.0567 56.8972 93.7794C56.2178 94.5021 55.8781 95.4596 55.8781 96.6521C55.8781 97.8083 56.2178 98.784 56.8972 99.5789C57.6123 100.338 58.5242 100.717 59.6327 100.717Z" stroke="white"/>
<path d="M76.213 105.107C75.5336 105.107 74.9615 104.909 74.4966 104.511C74.0317 104.114 73.7993 103.608 73.7993 102.994V82.8309C73.7993 82.2527 74.0139 81.7649 74.443 81.3674C74.9078 80.9338 75.4978 80.717 76.213 80.717C76.8924 80.717 77.4467 80.9338 77.8758 81.3674C78.3049 81.7649 78.5194 82.2708 78.5194 82.8851V102.939C78.5194 103.554 78.287 104.078 77.8221 104.511C77.393 104.909 76.8566 105.107 76.213 105.107Z" stroke="white"/>
<path d="M115.428 106.733C114.856 106.733 114.356 106.517 113.927 106.083L111.996 104.023C110.529 104.746 108.938 105.107 107.222 105.107C105.112 105.107 103.199 104.602 101.483 103.59C99.802 102.542 98.461 101.133 97.4598 99.3621C96.4943 97.5915 96.0116 95.6403 96.0116 93.5084C96.0116 91.3042 96.4943 89.353 97.4598 87.6547C98.461 85.9203 99.802 84.5653 101.483 83.5897C103.163 82.5779 105.076 82.072 107.222 82.072C109.367 82.072 111.263 82.5779 112.907 83.5897C114.588 84.5653 115.893 85.9203 116.823 87.6547C117.788 89.353 118.271 91.3042 118.271 93.5084C118.271 94.9899 118.039 96.3811 117.574 97.6819C117.109 98.9466 116.465 100.085 115.643 101.097L117.091 102.452C117.663 103.03 117.949 103.626 117.949 104.24C117.949 104.927 117.753 105.469 117.359 105.866C116.787 106.444 116.144 106.733 115.428 106.733ZM107.222 100.771C107.722 100.771 108.205 100.717 108.67 100.609L107.758 99.7415C107.186 99.2356 106.9 98.6033 106.9 97.8445C106.9 97.1941 107.097 96.6701 107.49 96.2727C107.991 95.7668 108.599 95.5138 109.314 95.5138C109.957 95.5138 110.494 95.7306 110.923 96.1642L112.371 97.7903C113.086 96.5617 113.444 95.1344 113.444 93.5084C113.444 91.4126 112.854 89.6963 111.674 88.3593C110.529 87.0224 109.046 86.3539 107.222 86.3539C105.362 86.3539 103.825 87.0224 102.609 88.3593C101.429 89.6963 100.839 91.4126 100.839 93.5084C100.839 95.6042 101.429 97.3386 102.609 98.7117C103.825 100.085 105.362 100.771 107.222 100.771Z" stroke="white"/>
<path d="M133.925 90.6358C133.925 89.9492 134.14 89.3892 134.569 88.9555C135.033 88.5219 135.606 88.3051 136.285 88.3051C136.964 88.3051 137.519 88.54 137.948 89.0098C138.413 89.4434 138.645 89.9854 138.645 90.6358V98.2781C138.645 99.7596 138.27 101.024 137.519 102.072C136.768 103.084 135.802 103.843 134.622 104.349C133.442 104.854 132.191 105.107 130.868 105.107C129.58 105.107 128.347 104.854 127.167 104.349C125.987 103.843 125.003 103.084 124.217 102.072C123.466 101.024 123.09 99.7596 123.09 98.2781V90.6358C123.09 89.9492 123.305 89.3892 123.734 88.9555C124.199 88.5219 124.771 88.3051 125.45 88.3051C126.13 88.3051 126.684 88.54 127.113 89.0098C127.578 89.4434 127.81 89.9854 127.81 90.6358V98.0613C127.81 98.8201 128.096 99.4524 128.669 99.9583C129.241 100.464 129.974 100.717 130.868 100.717C131.762 100.717 132.495 100.464 133.067 99.9583C133.639 99.4524 133.925 98.8201 133.925 98.0613V90.6358Z" stroke="white"/>
<path d="M151.859 105.107C149.427 105.107 147.371 104.385 145.69 102.939C144.046 101.458 143.223 99.4344 143.223 96.8689C143.223 94.195 144.028 92.0992 145.637 90.5816C147.282 89.0639 149.338 88.3051 151.805 88.3051C153.557 88.3051 155.006 88.6303 156.15 89.2808C157.294 89.9312 158.152 90.7622 158.724 91.774C159.297 92.7857 159.583 93.8517 159.583 94.9718C159.583 96.8508 158.76 97.7903 157.115 97.7903H148.211C147.925 97.7903 147.782 97.9709 147.782 98.3323C147.782 99.1634 148.229 99.8318 149.123 100.338C150.053 100.807 151.09 101.042 152.234 101.042C152.949 101.042 153.665 100.952 154.38 100.771C155.095 100.555 155.721 100.247 156.257 99.8499C156.615 99.597 156.99 99.4705 157.383 99.4705C157.92 99.4705 158.367 99.6692 158.724 100.067C159.118 100.464 159.314 100.934 159.314 101.476C159.314 102.126 158.975 102.741 158.295 103.319C157.652 103.861 156.704 104.294 155.453 104.62C154.237 104.945 153.039 105.107 151.859 105.107ZM154.648 94.6466C154.719 94.6466 154.809 94.6286 154.916 94.5924C155.059 94.5563 155.131 94.4298 155.131 94.213C155.131 93.671 154.791 93.1832 154.112 92.7496C153.468 92.2799 152.628 92.045 151.591 92.045C150.482 92.045 149.57 92.2979 148.855 92.8038C148.176 93.2735 147.836 93.7614 147.836 94.2672C147.836 94.5202 147.979 94.6466 148.265 94.6466C148.551 94.6466 154.648 94.6466 154.648 94.6466Z" stroke="white"/>
<path d="M169.974 105.107C167.542 105.107 165.54 104.602 163.966 103.59C163.644 103.373 163.412 103.12 163.269 102.831C163.126 102.506 163.054 102.199 163.054 101.91C163.054 101.295 163.251 100.735 163.644 100.229C164.074 99.7234 164.592 99.4705 165.2 99.4705C165.486 99.4705 165.772 99.5428 166.058 99.6873C166.702 99.9764 167.435 100.229 168.257 100.446C169.08 100.627 169.831 100.717 170.51 100.717C171.833 100.717 172.495 100.41 172.495 99.7957C172.495 99.4344 172.334 99.1272 172.012 98.8743C171.69 98.5852 170.939 98.3865 169.759 98.2781C169.294 98.242 168.686 98.1697 167.935 98.0613C167.22 97.9529 166.505 97.7541 165.79 97.4651C165.075 97.1399 164.467 96.6701 163.966 96.0559C163.501 95.4416 163.269 94.6105 163.269 93.5626C163.269 91.9366 163.877 90.6538 165.093 89.7144C166.308 88.7749 167.935 88.3051 169.974 88.3051C171.154 88.3051 172.262 88.4316 173.299 88.6845C174.372 88.9375 175.176 89.3169 175.713 89.8228C176.213 90.2925 176.464 90.8345 176.464 91.4488C176.464 91.9908 176.267 92.4786 175.874 92.9122C175.48 93.3458 174.98 93.5626 174.372 93.5626C174.05 93.5626 173.746 93.4903 173.46 93.3458C173.031 93.0567 172.477 92.8399 171.797 92.6954C171.154 92.5509 170.492 92.4786 169.813 92.4786C168.454 92.4786 167.775 92.7677 167.775 93.3458C167.775 93.5987 167.9 93.8336 168.15 94.0504C168.436 94.2311 169.062 94.3937 170.027 94.5382C170.635 94.6105 171.332 94.7189 172.119 94.8634C172.906 94.9718 173.657 95.1886 174.372 95.5138C175.123 95.8029 175.749 96.2907 176.249 96.9773C176.75 97.6638 177 98.6033 177 99.7957C177 101.422 176.357 102.723 175.069 103.698C173.782 104.638 172.083 105.107 169.974 105.107Z" stroke="white"/>
<path d="M188.266 105.107C186.729 105.107 185.459 104.656 184.458 103.752C183.457 102.849 182.956 101.458 182.956 99.5789V93.7252C182.956 93.3639 182.777 93.1832 182.42 93.1832H181.615C180.971 93.1832 180.489 92.9845 180.167 92.587C179.845 92.1895 179.684 91.6837 179.684 91.0694C179.684 90.419 179.845 89.895 180.167 89.4976C180.489 89.0639 180.971 88.8471 181.615 88.8471H182.42C182.777 88.8471 182.956 88.6665 182.956 88.3051V84.2943C182.956 83.68 183.171 83.1561 183.6 82.7225C184.029 82.2888 184.583 82.072 185.262 82.072C185.942 82.072 186.496 82.2888 186.925 82.7225C187.39 83.1199 187.623 83.6439 187.623 84.2943V88.3051C187.623 88.6665 187.801 88.8471 188.159 88.8471H190.143C190.751 88.8471 191.252 89.0639 191.645 89.4976C192.074 89.9312 192.289 90.4551 192.289 91.0694C192.289 91.6837 192.074 92.1895 191.645 92.587C191.252 92.9845 190.734 93.1832 190.09 93.1832H188.159C187.801 93.1832 187.623 93.3639 187.623 93.7252V98.8201C187.623 99.4705 187.73 99.9222 187.944 100.175C188.195 100.428 188.499 100.555 188.856 100.555C188.999 100.555 189.285 100.518 189.714 100.446C190.144 100.338 190.412 100.284 190.519 100.284C191.091 100.284 191.574 100.5 191.967 100.934C192.361 101.368 192.557 101.891 192.557 102.506C192.557 102.975 192.414 103.409 192.128 103.807C191.878 104.204 191.467 104.493 190.894 104.674C190.43 104.818 189.983 104.927 189.553 104.999C189.124 105.071 188.695 105.107 188.266 105.107Z" stroke="white"/>
</g>
<defs>
<filter id="filter0_d_122_11" x="0" y="0" width="196.557" height="200.51" filterUnits="userSpaceOnUse" color-interpolation-filters="sRGB">
<feFlood flood-opacity="0" result="BackgroundImageFix"/>
<feColorMatrix in="SourceAlpha" type="matrix" values="0 0 0 0 0 0 0 0 0 0 0 0 0 0 0 0 0 0 127 0" result="hardAlpha"/>
<feOffset dy="4"/>
<feGaussianBlur stdDeviation="2"/>
<feComposite in2="hardAlpha" operator="out"/>
<feColorMatrix type="matrix" values="0 0 0 0 0 0 0 0 0 0 0 0 0 0 0 0 0 0 0.25 0"/>
<feBlend mode="normal" in2="BackgroundImageFix" result="effect1_dropShadow_122_11"/>
<feBlend mode="normal" in="SourceGraphic" in2="effect1_dropShadow_122_11" result="shape"/>
</filter>
</defs>
</svg>
